<svg id="Layer_1" data-name="Layer 1" xmlns="http://www.w3.org/2000/svg" xmlns:xlink="http://www.w3.org/1999/xlink" viewBox="0 0 153.02 243.85"><defs><style>.cls-1{fill:none;}.cls-2{clip-path:url(#clip-path);}.cls-3{fill:url(#Degradado_sin_nombre_12);}.cls-4{fill:url(#Degradado_sin_nombre_12-2);}</style><clipPath id="clip-path" transform="translate(0 0.09)"><path class="cls-1" d="M154.66,212.5c0,5.08.63,0,.17,33.5l-156.71-.06L-2,15.42-1.88,0H154.66"/></clipPath><linearGradient id="Degradado_sin_nombre_12" x1="112.83" y1="251.4" x2="112.83" y2="207.13" gradientUnits="userSpaceOnUse"><stop offset="0" stop-color="#ff6d35"/><stop offset="1" stop-color="#f74635"/></linearGradient><linearGradient id="Degradado_sin_nombre_12-2" x1="39.64" y1="6.51" x2="39.64" y2="41.41" xlink:href="#Degradado_sin_nombre_12"/></defs><g class="cls-2"><path class="cls-3" d="M153,217.31a79.17,79.17,0,0,1-12.71-2.86c-3.95-1.23-7.81-2.78-11.83-3.76a51.66,51.66,0,0,0-17.18-1.06,37.49,37.49,0,0,0-10.2,2.26,39.26,39.26,0,0,0-7.84,4.4,72.9,72.9,0,0,0-19.44,20.19c.26.42-.43.94-.62,1.39-1,2.45-.55,6.14.49,5.87a29.59,29.59,0,0,0,3.22-.3H153Z" transform="translate(0 0.09)"/><path class="cls-4" d="M79.19,4.32c-.57-1-1.93-4.59-3-4.32-.17,0-.84-.16-.91,0L0-.09V27.1a80,80,0,0,1,11.91,2.74c3.95,1.24,7.81,2.78,11.82,3.76a51.43,51.43,0,0,0,17.18,1.06A37.2,37.2,0,0,0,51.12,32.4,38.56,38.56,0,0,0,59,28,72.72,72.72,0,0,0,78.39,7.81C79.19,7.32,79.44,4.74,79.19,4.32Z" transform="translate(0 0.09)"/></g></svg>