<svg xmlns="http://www.w3.org/2000/svg" xmlns:xlink="http://www.w3.org/1999/xlink" viewBox="0 0 153.89 126.61"><defs><style>.cls-1{fill:none;}.cls-2{isolation:isolate;}.cls-3{clip-path:url(#clip-path);}.cls-4{fill:#ff6d35;}.cls-5{fill:url(#Degradado_sin_nombre_12);}.cls-6{fill:url(#Degradado_sin_nombre_12-2);}.cls-7{fill:#e2e2e2;mix-blend-mode:multiply;}</style><clipPath id="clip-path" transform="translate(-0.11 0.82)"><polygon class="cls-1" points="156 243 0 243 0 -0.46 0 -0.46 156 -0.46 156 243"/></clipPath><linearGradient id="Degradado_sin_nombre_12" x1="97.49" y1="-5.27" x2="97.49" y2="33.51" gradientUnits="userSpaceOnUse"><stop offset="0" stop-color="#ff6d35"/><stop offset="1" stop-color="#f74635"/></linearGradient><linearGradient id="Degradado_sin_nombre_12-2" x1="34.22" y1="33.43" x2="94.86" y2="105.5" xlink:href="#Degradado_sin_nombre_12"/></defs><g class="cls-2"><g id="Layer_1" data-name="Layer 1"><g class="cls-3"><path class="cls-4" d="M113.89,3.9v.77h0c14.27,0,34.85.3,39,.36l.17,37L153,67.78l-4.48,1.1-.22.05-.15.16-40.58,41.65A42.11,42.11,0,0,1,76,125c-23.91,0-43.37-20.35-43.37-45.37A45.92,45.92,0,0,1,49.18,44l.23-.2.31-.24c.4-.32.8-.63,1.22-.94C65,31.86,97.18,7.19,99.87,5c.53-.1,3-.28,14-.28V3.9m0,0c-8,0-14.14.09-14.41.36-.7.73-40.09,30.93-49,37.76-.42.31-.83.62-1.23.94l-.56.43v0A46.84,46.84,0,0,0,31.87,79.64c0,25.49,19.76,46.15,44.14,46.15a43.15,43.15,0,0,0,32.14-14.53l40.56-41.63,5.06-1.24L153.89,42l-.17-37.77S130,3.9,113.89,3.9Z" transform="translate(-0.11 0.82)"/><path class="cls-5" d="M41,1.7C46,9.62,56.08,28,63.63,33.33a38.41,38.41,0,0,0,7.73,4.38A36.3,36.3,0,0,0,81.43,40a50.52,50.52,0,0,0,16.94-1.05c4-1,7.77-2.52,11.66-3.75a78.08,78.08,0,0,1,20.86-3.59,26.91,26.91,0,0,1,10.49,1.3,12.4,12.4,0,0,1,7.51,7.36c0-.37,4.83-.63,4.83-1V5.4c-1.38-.52,1.29-5.82-.17-5.82L44-.48a.49.49,0,0,0-.34-.3C42.66-1,41.8,0,41.24,1,41,1.39,41.23,1.29,41,1.7Z" transform="translate(-0.11 0.82)"/><path class="cls-6" d="M103.39,43.41v0l-.55-.43L101.61,42C92.69,35.19,47.66.66,47-.07S.19-.46.19-.46L.11,66.26l43.82,45a43.15,43.15,0,0,0,32.14,14.53c24.38,0,44.14-20.66,44.14-46.15A46.84,46.84,0,0,0,103.39,43.41Z" transform="translate(-0.11 0.82)"/><ellipse class="cls-7" cx="78.35" cy="84.31" rx="34.68" ry="36.26"/></g></g></g></svg>